<svg xmlns="http://www.w3.org/2000/svg" viewBox="0 0 1200 760" width="1200" height="760">
  <defs>
    <linearGradient id="app-bg" x1="20" y1="12" x2="108" y2="118" gradientUnits="userSpaceOnUse">
      <stop offset="0" stop-color="#252321"/>
      <stop offset="0.58" stop-color="#33302c"/>
      <stop offset="1" stop-color="#171918"/>
    </linearGradient>
    <radialGradient id="app-halo" cx="0" cy="0" r="1" gradientUnits="userSpaceOnUse" gradientTransform="translate(62 51) rotate(90) scale(49 52)">
      <stop offset="0" stop-color="#f2b487"/>
      <stop offset="0.48" stop-color="#d86f4e"/>
      <stop offset="1" stop-color="#d86f4e" stop-opacity="0"/>
    </radialGradient>
    <linearGradient id="app-cloud" x1="38" y1="38" x2="89" y2="83" gradientUnits="userSpaceOnUse">
      <stop offset="0" stop-color="#fffaf0"/>
      <stop offset="0.62" stop-color="#ead2b5"/>
      <stop offset="1" stop-color="#c9825c"/>
    </linearGradient>
    <filter id="shadow" x="-20%" y="-20%" width="140%" height="150%" color-interpolation-filters="sRGB">
      <feDropShadow dx="0" dy="18" stdDeviation="18" flood-color="#000" flood-opacity="0.24"/>
    </filter>
    <symbol id="app-icon" viewBox="0 0 128 128">
      <rect x="6" y="6" width="116" height="116" rx="29" fill="url(#app-bg)"/>
      <circle cx="62" cy="51" r="48" fill="url(#app-halo)"/>
      <path fill="#e38b63" opacity="0.56" d="M90.5 30.5a44 44 0 0 1 3.6 48.6 38.4 38.4 0 0 0-56.9-46.4 44.1 44.1 0 0 1 53.3-2.2Z"/>
      <path fill="url(#app-cloud)" d="M89.8 76.4H38.1a21 21 0 0 1-.7-42 25.4 25.4 0 0 1 48 6.4 18.4 18.4 0 0 1 4.4 35.6Z"/>
      <path fill="#fff7e8" opacity="0.58" d="M43.2 47.3A21.6 21.6 0 0 1 61.6 37c9.7 0 17.7 6.1 21 14.4a17 17 0 0 0-32.8 4.2 14.8 14.8 0 0 0-6.6-8.3Z"/>
      <g fill="none" stroke="#f9e5c3" stroke-width="5" stroke-linecap="round">
        <path d="M42 92h11"/>
        <path d="M58.5 98h11"/>
        <path d="M75 92h11"/>
      </g>
      <g fill="#f7d6aa">
        <circle cx="47.5" cy="92" r="2.4"/>
        <circle cx="64" cy="98" r="2.4"/>
        <circle cx="80.5" cy="92" r="2.4"/>
      </g>
    </symbol>
    <symbol id="activity-nimbus" viewBox="0 0 24 24">
      <g fill="none" stroke="currentColor" stroke-width="1.65" stroke-linecap="round" stroke-linejoin="round">
        <path d="M7.2 16.2a3.7 3.7 0 0 1-.1-7.4 5.1 5.1 0 0 1 9.7 1.3 3.25 3.25 0 0 1 1 6.1H7.2Z"/>
        <path d="M12 3.6v2"/>
        <path d="m8 5.3 1.2 1.5"/>
        <path d="m16 5.3-1.2 1.5"/>
      </g>
      <g fill="currentColor">
        <circle cx="8.7" cy="20" r="0.85"/>
        <circle cx="12" cy="20.7" r="0.85"/>
        <circle cx="15.3" cy="20" r="0.85"/>
      </g>
    </symbol>
    <symbol id="activity-tasks" viewBox="0 0 24 24">
      <g fill="none" stroke="currentColor" stroke-width="1.65" stroke-linecap="round" stroke-linejoin="round">
        <path d="M7.9 13.4a3 3 0 0 1-.1-6 4.25 4.25 0 0 1 8.1 1.05 2.7 2.7 0 0 1 .85 4.95H7.9Z"/>
        <path d="m6.9 16.25 1.15 1.15 2.1-2.35"/>
        <path d="M12.5 16.3h4.7"/>
        <path d="m6.9 20.2 1.15 1.15 2.1-2.35"/>
        <path d="M12.5 20.25h4.7"/>
      </g>
    </symbol>
    <symbol id="activity-settings" viewBox="0 0 24 24">
      <g fill="none" stroke="currentColor" stroke-width="1.65" stroke-linecap="round" stroke-linejoin="round">
        <path d="M7.9 13.4a3 3 0 0 1-.1-6 4.25 4.25 0 0 1 8.1 1.05 2.7 2.7 0 0 1 .85 4.95H7.9Z"/>
        <path d="M6.8 16.2h10.4"/>
        <path d="M6.8 19.35h10.4"/>
        <path d="M6.8 22.5h10.4"/>
      </g>
      <g fill="currentColor">
        <circle cx="10.1" cy="16.2" r="1.05"/>
        <circle cx="14.2" cy="19.35" r="1.05"/>
        <circle cx="9" cy="22.5" r="1.05"/>
      </g>
    </symbol>
    <symbol id="activity-debug" viewBox="0 0 24 24">
      <g fill="none" stroke="currentColor" stroke-width="1.65" stroke-linecap="round" stroke-linejoin="round">
        <path d="M7.9 13.4a3 3 0 0 1-.1-6 4.25 4.25 0 0 1 8.1 1.05 2.7 2.7 0 0 1 .85 4.95H7.9Z"/>
        <circle cx="11" cy="17.35" r="3.15"/>
        <path d="m13.25 19.55 3.15 3.05"/>
        <path d="M9.65 17.35h2.7"/>
        <path d="M11 16v2.7"/>
      </g>
    </symbol>
    <style>
      .label { fill: #242424; font: 600 22px -apple-system, BlinkMacSystemFont, "Segoe UI", sans-serif; }
      .sub { fill: #666; font: 16px -apple-system, BlinkMacSystemFont, "Segoe UI", sans-serif; }
      .tiny { fill: #777; font: 13px -apple-system, BlinkMacSystemFont, "Segoe UI", sans-serif; }
    </style>
  </defs>
  <rect width="1200" height="760" fill="#f7f4ee"/>
  <text x="64" y="68" class="label" font-size="30">Nimbus icon concept</text>
  <text x="64" y="96" class="sub">New candidate set. Activity Bar SVGs are monochrome and use currentColor.</text>

  <g transform="translate(64 142)">
    <text x="0" y="0" class="label">App icon</text>
    <rect x="0" y="30" width="250" height="250" rx="20" fill="#fff" filter="url(#shadow)"/>
    <use href="#app-icon" x="40" y="70" width="170" height="170"/>
    <text x="0" y="324" class="sub">Warm halo and cloud canopy.</text>
    <text x="0" y="348" class="sub">Three small agent signals.</text>
  </g>

  <g transform="translate(370 142)">
    <text x="0" y="0" class="label">Activity Bar, dark theme</text>
    <rect x="0" y="30" width="744" height="148" rx="14" fill="#1e1e1e"/>
    <g color="#f2f2f2">
      <use href="#activity-nimbus" x="42" y="62" width="56" height="56"/>
      <use href="#activity-tasks" x="222" y="62" width="56" height="56"/>
      <use href="#activity-settings" x="402" y="62" width="56" height="56"/>
      <use href="#activity-debug" x="582" y="62" width="56" height="56"/>
    </g>
    <g fill="#c9c9c9" font-family="-apple-system, BlinkMacSystemFont, 'Segoe UI', sans-serif" font-size="15">
      <text x="42" y="145">Nimbus</text>
      <text x="222" y="145">Tasks</text>
      <text x="402" y="145">Settings</text>
      <text x="582" y="145">Debug</text>
    </g>
  </g>

  <g transform="translate(370 342)">
    <text x="0" y="0" class="label">Activity Bar, light theme</text>
    <rect x="0" y="30" width="744" height="148" rx="14" fill="#fbfbfb" stroke="#ded9cf"/>
    <g color="#333333">
      <use href="#activity-nimbus" x="42" y="62" width="56" height="56"/>
      <use href="#activity-tasks" x="222" y="62" width="56" height="56"/>
      <use href="#activity-settings" x="402" y="62" width="56" height="56"/>
      <use href="#activity-debug" x="582" y="62" width="56" height="56"/>
    </g>
    <g fill="#666" font-family="-apple-system, BlinkMacSystemFont, 'Segoe UI', sans-serif" font-size="15">
      <text x="42" y="145">Nimbus</text>
      <text x="222" y="145">Tasks</text>
      <text x="402" y="145">Settings</text>
      <text x="582" y="145">Debug</text>
    </g>
  </g>

  <g transform="translate(64 545)">
    <text x="0" y="0" class="label">Small-size check</text>
    <text x="0" y="30" class="sub">32px, 24px, and 16px previews for each monochrome asset.</text>
    <g color="#2d2d2d">
      <use href="#activity-nimbus" x="0" y="58" width="32" height="32"/>
      <use href="#activity-nimbus" x="48" y="62" width="24" height="24"/>
      <use href="#activity-nimbus" x="88" y="66" width="16" height="16"/>
      <use href="#activity-tasks" x="185" y="58" width="32" height="32"/>
      <use href="#activity-tasks" x="233" y="62" width="24" height="24"/>
      <use href="#activity-tasks" x="273" y="66" width="16" height="16"/>
      <use href="#activity-settings" x="370" y="58" width="32" height="32"/>
      <use href="#activity-settings" x="418" y="62" width="24" height="24"/>
      <use href="#activity-settings" x="458" y="66" width="16" height="16"/>
      <use href="#activity-debug" x="555" y="58" width="32" height="32"/>
      <use href="#activity-debug" x="603" y="62" width="24" height="24"/>
      <use href="#activity-debug" x="643" y="66" width="16" height="16"/>
    </g>
    <g class="tiny">
      <text x="0" y="116">Nimbus</text>
      <text x="185" y="116">Tasks</text>
      <text x="370" y="116">Settings</text>
      <text x="555" y="116">Debug</text>
    </g>
  </g>
</svg>
