<svg xmlns="http://www.w3.org/2000/svg" viewBox="0 0 24 24" width="24" height="24">
  <!-- Nimbus の雲を小さく載せ、雨粒の代わりに虫を置く。
       雲だけの本体アイコンとは「下に付くものの重さ」で見分ける（細い線 対 塊）。
       アクティビティバーは単色マスクなので、塗りも線も currentColor に任せる -->
  <g transform="translate(2.16 -0.9) scale(0.82)">
    <path fill="currentColor" d="M17.5 18h-10A4.5 4.5 0 0 1 7 9.03 5.5 5.5 0 0 1 17.4 10.2 3.9 3.9 0 0 1 17.5 18Z"/>
  </g>
  <g fill="none" stroke="currentColor" stroke-width="1.35" stroke-linecap="round">
    <path d="M10.7 16.1 9.5 14.7"/>
    <path d="M13.3 16.1 14.5 14.7"/>
    <path d="M8.9 17.7 7.4 17.1"/>
    <path d="M8.7 19.6 7.1 19.6"/>
    <path d="M8.9 21.5 7.4 22.1"/>
    <path d="M15.1 17.7 16.6 17.1"/>
    <path d="M15.3 19.6 16.9 19.6"/>
    <path d="M15.1 21.5 16.6 22.1"/>
  </g>
  <ellipse cx="12" cy="19.5" rx="3.1" ry="3.9" fill="currentColor"/>
</svg>
